<svg data-v-5f6a19e2="" width="87" height="21" viewBox="0 0 87 21" fill="none" xmlns="http://www.w3.org/2000/svg" svg-inline="" role="presentation" focusable="false" tabindex="-1" class="todo"><path data-v-5f6a19e2="" d="M18.44.902H0v8.271h4.475V20.02h9.423V9.173h4.543V.902zM76.543.495c-5.831 0-10.238 4.475-10.238 9.966v.068c0 5.491 4.34 9.966 10.17 9.966s10.237-4.475 10.237-9.966v-.068c0-5.56-4.339-9.966-10.17-9.966zM32.203.495c-5.83 0-10.237 4.475-10.237 9.966v.068c0 5.491 4.339 9.966 10.17 9.966 5.83 0 10.237-4.475 10.237-9.966v-.068c0-5.56-4.34-9.966-10.17-9.966zM52.068.902H46.44v19.186H52c6.915 0 10.847-4.068 10.847-9.627v-.068C62.78 4.834 58.915.902 52.067.902z" fill="#fff"></path></svg>